<?xml version="1.0" encoding="utf-8"?>
<!-- Generator: Adobe Illustrator 25.3.0, SVG Export Plug-In . SVG Version: 6.00 Build 0)  -->
<svg version="1.1" id="Layer_1" xmlns="http://www.w3.org/2000/svg" xmlns:xlink="http://www.w3.org/1999/xlink" x="0px" y="0px"
	 viewBox="0 0 1000 1000" style="enable-background:new 0 0 1000 1000;" xml:space="preserve">
<style type="text/css">
	.st0{fill:#1A1A1A;}
</style>
<g id="Logo">
	<path class="st0" d="M462.3,668.4c-4.9,3.7-9.9,7.2-14.9,10.4l-0.2-56.2c5.1-1.4,10.1-3.2,14.9-5.4L462.3,668.4z"/>
	<path class="st0" d="M493,686.2c-4.9,3.7-9.9,7.2-14.9,10.4l-0.1-20.5v-10v-10.2l-0.1-46.9c4.2-2.2,8.6-4.1,13.1-5.6
		c1.2,6.2,1.8,12.5,1.8,18.8l0.1,20.3v10.7v10.5L493,686.2z"/>
	<path class="st0" d="M465.1,278.6L276.2,387.7l0.3,110.8c-0.1,11.1,1.6,22.1,5,32.7c-12.8-9.3-19.9-27.1-20-50.5l-0.3-101.7
		l181-104.5c36.9-21.3,71.9-28.8,100.9-21.9C518.8,254.2,492.4,262.9,465.1,278.6z"/>
	<path class="st0" d="M495.8,296.5L306.9,405.5l0.3,110.8c0,7.4,0.7,14.8,2.1,22c0.5,2.6,1.1,5.2,1.9,7.7c0.3,1,0.6,2.1,1,3.1
		c-1.2-0.9-2.4-1.8-3.5-2.8c-2.5-2.3-4.7-4.9-6.5-7.8c-6.5-9.9-9.9-23.5-10-39.9l-0.3-101.7L473,292.2c36.9-21.3,71.9-28.8,100.9-22
		C549.5,272,523,280.8,495.8,296.5z"/>
	<path class="st0" d="M523.6,704c-4.9,3.7-9.9,7.2-14.9,10.4l-0.1-20.5v-10v-10.2l-0.1-24.7v-11.2v-11.3v-4.4c0-7.4-0.7-14.8-2.1-22
		c2.4-0.2,4.7-0.2,7.1-0.1c2.7,4.2,4.8,8.8,6.3,13.6c0.9,3.1,1.7,6.2,2.2,9.3c0.6,3.5,1,7,1.2,10.5c0.1,2.1,0.2,4.2,0.2,6.4l0,20.3
		v10.7v10.5L523.6,704z"/>
	<path class="st0" d="M603.4,288.1c-2.8,0.2-5.7,0.5-8.6,1c-21.7,3.1-44.8,11.5-68.4,25.1l-188.9,109l0.3,106.1v4.7
		c0,1.3,0,2.7,0.1,4c0.1,2.9,0.3,5.6,0.6,8.4c0.4,3.3,0.8,6.5,1.5,9.6c0.5,2.6,1.1,5.2,1.9,7.7c0.3,1,0.6,2.1,1,3.1
		c-1.2-0.9-2.4-1.8-3.5-2.9c-2.5-2.3-4.7-4.9-6.5-7.8c-1.3-2-2.5-4.1-3.5-6.2c-1.1-2.4-2.1-4.8-2.8-7.3c-0.8-2.5-1.4-5-1.9-7.6
		c-1.2-6.2-1.8-12.5-1.8-18.8l-0.3-101.7L503.6,310c32.1-18.5,62.7-26.6,89.2-23.9c3.5,0.3,7,0.9,10.4,1.6
		C603.3,287.9,603.3,288,603.4,288.1z"/>
	<path class="st0" d="M738.7,444.6C739,554.8,664.3,688.5,569.9,750l-0.1-20.5v-10v-10.2l-0.1-24.7v-11.2v-11.3v-4.4
		c0-7.5-0.7-15-2.2-22.4c-0.7-3.2-1.6-6.4-2.6-9.5c-0.9-2.9-2-5.7-3.3-8.4c-2.9-6.3-6.8-12-11.6-17c-1.8-1.9-3.8-3.6-5.9-5.2
		c-1.8-1.3-3.6-2.6-5.5-3.7c-0.3-0.2-0.7-0.4-1-0.6c-4.9-2.7-10.2-4.6-15.6-5.7c-3.8-0.7-7.6-1.1-11.4-1.1h-0.9
		c-2.6,0-5.3,0.2-7.9,0.6c-1.6,0.2-3.2,0.5-4.8,0.8c-1,0.2-2.1,0.4-3.1,0.7c-2.5,0.6-5,1.3-7.6,2.2c-3,1-6,2.2-9.1,3.5
		c-2.5,1.1-5,2.3-7.5,3.6c-1.5,0.8-3,1.6-4.5,2.5c-1,0.6-2.1,1.2-3.1,1.7c-4.7,2.6-9.7,4.8-14.8,6.5c-2.6,0.9-5.2,1.6-7.8,2.1
		c-2.6,0.6-5.2,0.9-7.8,1.1c-7.2,0.7-14.4-0.5-21-3.3c-1.1-0.5-2.2-1-3.2-1.6c-2.4-1.4-4.7-3.1-6.7-5c-2.5-2.3-4.7-4.9-6.5-7.8
		c-1.3-2-2.5-4.1-3.5-6.2c-1.1-2.4-2-4.8-2.8-7.3c-0.8-2.5-1.4-5-1.9-7.6c-0.9-4.7-1.5-9.5-1.7-14.2c-0.1-1.5-0.1-3-0.1-4.5v-4.2
		V539v-10.2V521v-7.9l-0.2-63l180.9-104.5c15.7-9.1,31.1-15.6,45.8-19.6c2.5-0.7,5.1-1.3,7.6-1.9s5.2-1,7.8-1.5s5.1-0.7,7.7-1
		c2.8-0.3,5.6-0.4,8.3-0.5c2.9-0.1,5.8,0,8.6,0.2c1.2,0.1,2.4,0.2,3.6,0.3c3.5,0.4,7,0.9,10.4,1.6c2.7,0.6,5.3,1.3,7.9,2.1
		c1,0.4,1.9,0.7,2.9,1c4.5,1.6,8.9,3.7,13.1,6.1c0.5,0.3,1,0.6,1.5,0.9l0,0c6.6,4,12.7,9,17.9,14.6
		C727.8,369.6,738.6,402.9,738.7,444.6z"/>
	<path class="st0" d="M554.2,721.8c-4.9,3.7-9.9,7.1-14.9,10.4l-0.1-20.5v-10v-10.2l-0.1-24.7v-11.2v-11.3v-4.4
		c0-7.5-0.7-15-2.2-22.4c-0.7-3.2-1.5-6.4-2.5-9.5l0.3-0.4c2.1,1.6,4,3.4,5.8,5.4c4.6,5.4,7.9,11.7,9.9,18.4c1,3.1,1.7,6.2,2.2,9.3
		c0.6,3.5,1,7,1.2,10.5c0.1,2.1,0.2,4.2,0.2,6.4l0.1,20.3v10.7v10.5L554.2,721.8z"/>
	<path class="st0" d="M634,305.9c-2.8,0.2-5.7,0.6-8.6,1c-1.4,0.2-2.8,0.4-4.2,0.6c-2.6,0.4-5.2,1-7.8,1.6c-2.5,0.6-5,1.2-7.6,1.9
		c-17.1,4.9-33.5,12-48.8,21l-188.9,109l0.2,74.7v8.2v8.2v15.1v4.7c0,1.3,0,2.7,0.1,4c0.1,2.8,0.3,5.6,0.6,8.3
		c0.3,3.3,0.8,6.5,1.5,9.6c0.5,2.6,1.1,5.2,1.9,7.7c0.3,1,0.6,2.1,1,3.1c-1.2-0.9-2.4-1.8-3.5-2.9c-2.5-2.3-4.7-4.9-6.5-7.8
		c-1.3-2-2.5-4.1-3.4-6.2c-1.1-2.4-2.1-4.8-2.8-7.3c-0.8-2.5-1.4-5-1.9-7.6c-0.9-4.7-1.5-9.4-1.7-14.2c-0.1-1.5-0.1-3-0.1-4.5v-4.2
		v-8.7l-0.2-88.9l181.1-104.5c24.1-13.9,47.4-21.9,68.7-23.9c2.8-0.3,5.6-0.4,8.3-0.5c2.9,0,5.8,0,8.6,0.2c1.2,0.1,2.4,0.2,3.6,0.3
		c3.5,0.3,6.9,0.9,10.4,1.6C633.9,305.7,634,305.8,634,305.9z"/>
</g>
</svg>
