<?xml version="1.0" encoding="utf-8"?>
<!-- Generator: Adobe Illustrator 25.3.0, SVG Export Plug-In . SVG Version: 6.00 Build 0)  -->
<svg version="1.1" id="Layer_1" xmlns="http://www.w3.org/2000/svg" xmlns:xlink="http://www.w3.org/1999/xlink" x="0px" y="0px"
	 viewBox="0 0 1000 1000" style="enable-background:new 0 0 1000 1000;" xml:space="preserve">
<style type="text/css">
	.st0{fill:#1A1A1A;}
</style>
<g id="Logo">
	<path class="st0" d="M572,615H285v-87c0-78.9,64.1-143,143-143h287v87C715,550.8,650.8,615,572,615z M315,585h257
		c62.4-0.1,112.9-50.6,113-113v-57H428c-62.4,0.1-112.9,50.6-113,113V585z"/>
	<path class="st0" d="M365,528h-30c0.1-51.3,41.7-92.9,93-93v30C393.2,465,365,493.2,365,528z"/>
	<path class="st0" d="M548,528h-30c0.1-51.3,41.7-92.9,93-93v30C576.2,465,548,493.2,548,528z"/>
	<path class="st0" d="M572,565v-30c34.8,0,63-28.2,63-63h30C664.9,523.3,623.3,564.9,572,565z"/>
	<path class="st0" d="M389,565v-30c34.8,0,63-28.2,63-63h30C481.9,523.3,440.3,564.9,389,565z"/>
</g>
</svg>
