<?xml version="1.0" encoding="utf-8"?>
<!-- Generator: Adobe Illustrator 25.3.0, SVG Export Plug-In . SVG Version: 6.00 Build 0)  -->
<svg version="1.1" id="Layer_1" xmlns="http://www.w3.org/2000/svg" xmlns:xlink="http://www.w3.org/1999/xlink" x="0px" y="0px"
	 viewBox="0 0 1000 1000" style="enable-background:new 0 0 1000 1000;" xml:space="preserve">
<style type="text/css">
	.st0{fill:#1A1A1A;}
</style>
<g id="Logo">
	<path class="st0" d="M587.7,286.3c-19.4-19.5-44.8-31.9-72.2-35.3c-5.2-0.6-10.4-1-15.6-1c-68.5,0-124,55.5-124.1,123.9
		c0,0,0,0,0,0.1v367.5c0.1,10.2,14.8,11.7,16.9,1.7l8.3-41.3c1.8-8.9,10.5-14.7,19.4-13c2.3,0.5,4.5,1.4,6.4,2.8
		c42.6,31,103.4,31,146,0c7.4-5.3,17.7-3.6,23,3.8c1.4,1.9,2.3,4.1,2.8,6.5l8.3,41.2c2.1,10,16.8,8.6,17-1.7V374
		C624.2,341.1,611.1,309.5,587.7,286.3z M565.8,656.9c-34.6,36.1-96.9,36.1-131.6,0c-17.5-17.4-27.3-41.1-27.2-65.8V456.1
		c2.1,2.4,4.4,4.7,6.7,7s4.7,4.4,7.2,6.5c4.3,3.6,8.9,6.9,13.6,9.9c0.7,0.4,1.4,0.9,2.1,1.3c1.1,0.7,2.2,1.3,3.4,1.9
		c0.7,0.4,1.5,0.8,2.2,1.2c1.6,0.9,3.2,1.6,4.8,2.4l2,0.9c1,0.4,1.9,0.9,2.9,1.3s1.8,0.8,2.7,1.1c3.9,1.6,8,2.9,12.1,4.1
		c1,0.3,2.1,0.6,3.2,0.8s2.1,0.5,3.2,0.8c0,0,0.1,0,0.1,0c1,0.2,2,0.4,3,0.6c0.2,0.1,0.4,0.1,0.6,0.1c0.8,0.1,1.6,0.3,2.3,0.4
		l1.1,0.2l2,0.3l1.6,0.2l1.5,0.2c0.6,0.1,1.2,0.1,1.8,0.2c1.5,0.1,2.9,0.3,4.4,0.4c0.8,0.1,1.5,0.1,2.3,0.1c2.1,0.1,4.2,0.2,6.4,0.2
		h0.5c0.8,0,1.5,0,2.3,0h0.1c22.7,0.7,44.4,9.7,60.8,25.4l0.5,0.5C598.8,557.9,605.6,617.5,565.8,656.9z M500.5,467.1
		c-14.6,0.1-29.1-3.3-42.1-9.9c-1.6-0.8-3.1-1.6-4.6-2.5c-1.9-1.1-3.8-2.3-5.7-3.6s-3.7-2.6-5.4-4c-1.2-0.9-2.3-1.9-3.4-2.8
		c-1.7-1.5-3.3-3-4.9-4.6c-1-1.1-2.1-2.1-3.1-3.2c-1.5-1.6-3-3.4-4.3-5.1c-0.9-1.2-1.8-2.4-2.7-3.6c-1.7-2.4-3.4-4.9-4.8-7.5
		c-0.8-1.3-1.5-2.6-2.2-4c-3.5-6.8-6.1-13.9-7.8-21.3c-0.3-1.5-0.6-3-0.9-4.5c-1-5.4-1.4-10.9-1.4-16.5c0-0.9,0-1.8,0-2.7
		c0-0.6,0-1.3,0.1-1.9c1.9-51.3,45-91.4,96.3-89.6c50.5,1.8,90.3,43.7,89.6,94.2v134.9C569.7,482.2,536,466.9,500.5,467.1z"/>
</g>
</svg>
