<?xml version="1.0" encoding="utf-8"?>
<!-- Generator: Adobe Illustrator 25.3.0, SVG Export Plug-In . SVG Version: 6.00 Build 0)  -->
<svg version="1.1" id="Layer_1" xmlns="http://www.w3.org/2000/svg" xmlns:xlink="http://www.w3.org/1999/xlink" x="0px" y="0px"
	 viewBox="0 0 1000 1000" style="enable-background:new 0 0 1000 1000;" xml:space="preserve">
<style type="text/css">
	.st0{fill:#1A1A1A;}
</style>
<g id="Logo">
	<path class="st0" d="M609.2,594.9c-25.7,0-46.5-20.8-46.5-46.5c0-25.7-20.8-46.5-46.5-46.5h-94.4c-8.6,0.3-15.7-6.4-16.1-14.9
		c-0.3-8.6,6.4-15.7,14.9-16.1c0.4,0,0.7,0,1.1,0h94.4c42.8,0,77.5,34.7,77.5,77.5c-0.3,8.6,6.4,15.7,14.9,16.1s15.7-6.4,16.1-14.9
		c0-0.4,0-0.7,0-1.1V265.5c0.3-8.6,7.5-15.3,16.1-14.9c8.1,0.3,14.7,6.8,14.9,14.9v282.9C655.7,574.1,634.9,594.9,609.2,594.9z"/>
	<path class="st0" d="M477.9,439.8c-39.6,0-71.6-32.1-71.7-71.7c0.3-8.6,7.5-15.3,16.1-14.9c8.1,0.3,14.7,6.8,14.9,14.9
		c0,20,14.6,37,34.4,40.2c31.7-36.6,31.5-90.9-0.4-127.3h-49.5c-8.6-0.3-15.3-7.5-14.9-16.1c0.3-8.1,6.8-14.7,14.9-14.9h56.1
		c4.1,0,8.1,1.6,11,4.5c49.8,50,49.8,130.8,0,180.7C486,438.2,482,439.8,477.9,439.8z"/>
	<path class="st0" d="M469,673.1c-34.6,0-62.7-28.1-62.7-62.7s28.1-62.7,62.7-62.7s62.7,28.1,62.7,62.7v0
		C531.7,645,503.6,673.1,469,673.1z M469,578.7c-17.5,0-31.7,14.2-31.7,31.7c0,17.5,14.2,31.7,31.7,31.7c17.5,0,31.7-14.2,31.7-31.7
		c0,0,0,0,0,0C500.7,592.9,486.5,578.7,469,578.7L469,578.7z"/>
	<path class="st0" d="M359.7,750c-8.6,0-15.5-6.9-15.5-15.5c0,0,0,0,0,0v-469c0.3-8.6,7.5-15.3,16.1-14.9
		c8.1,0.3,14.7,6.8,14.9,14.9v469C375.2,743,368.3,750,359.7,750z"/>
	<path class="st0" d="M640.3,750c-8.6,0-15.5-6.9-15.5-15.5l0,0v-36.4c-26.5,32.8-66.4,51.9-108.6,51.9h-94.4
		c-8.6-0.3-15.3-7.5-14.9-16.1c0.3-8.1,6.8-14.7,14.9-14.9h94.4c59.9-0.1,108.5-48.6,108.6-108.6c0.3-8.6,7.5-15.3,16.1-14.9
		c8.1,0.3,14.7,6.8,14.9,14.9v124.1C655.8,743.1,648.8,750,640.3,750L640.3,750z"/>
</g>
</svg>
