<?xml version="1.0" encoding="utf-8"?>
<!-- Generator: Adobe Illustrator 25.3.0, SVG Export Plug-In . SVG Version: 6.00 Build 0)  -->
<svg version="1.1" id="Layer_1" xmlns="http://www.w3.org/2000/svg" xmlns:xlink="http://www.w3.org/1999/xlink" x="0px" y="0px"
	 viewBox="0 0 1000 1000" style="enable-background:new 0 0 1000 1000;" xml:space="preserve">
<style type="text/css">
	.st0{fill:#1A1A1A;}
</style>
<g id="Logo">
	<path class="st0" d="M633.5,410.9L589,455.4c-17.1,17-22.9,42.3-15,65.1l-69.6-69.6l84.6-84.5c12.3-12.2,12.3-32.1,0.1-44.4
		c-9.4-9.4-23.7-11.9-35.7-6.2c-3.4,1.6-6.5,3.8-9.2,6.4L266.4,600c-4.1,4.1-10.1,5.6-15.6,4c-2.5-0.8-4.8-2.1-6.6-4l-22.2-22.2
		c-6.1-6.1-6.2-16.1,0-22.2c0,0,0,0,0,0c0.9-0.9,277.5-277.5,278.3-278.3c3.1-3,6.3-5.8,9.8-8.3c17.7-13.2,39.5-19.8,61.5-18.7
		C653.1,254.1,691,353,633.5,410.9z"/>
	<path class="st0" d="M540,584.4l-84.5-84.5c-17-17.1-42.3-22.9-65.1-15c12.2-12.2,82.5-82.5,94.6-94.6c-7.9,22.8-2.1,48.1,15,65.1
		l84.5,84.5L540,584.4z"/>
	<path class="st0" d="M698.9,434.4l34.7-34.7c6.1-6.1,16.1-6.1,22.2,0l22.3,22.2c6.1,6.1,6.1,16.1,0,22.2L678,544.3
		c-24.6,24.6-24.6,64.4,0,89c0,0,0,0,0,0l67.4,67.4c6.1,6.1,6.2,16.1,0,22.2c0,0,0,0,0,0l-22.2,22.2c-6.1,6.1-16.1,6.1-22.2,0
		c0,0,0,0,0,0l-67.4-67.4c-16.7-17-43-22.9-65.3-14.9c-5.4,1.9-10.4,4.5-15.1,7.7c-6.3,3.6-46.9,46-53.1,51.7l-0.5,0.5
		c-8.5,8.4-18.5,15.2-29.6,19.8c-69.5,28.8-143-29.9-129.3-104.2c0-0.3,0.1-0.5,0.1-0.8c2.2-11.2,6.3-22,12.3-31.8
		c1.5-2.5,3.2-5,5-7.4c2.2-4.9,87.4-88.2,92.8-94.1c9.5,9.5,60.6,60.6,69.6,69.6c-22.8-7.9-48.1-2.1-65.1,15L411,633.3
		c-11.4,11.5-12.3,29.8-2,42.2c0,0,0,0,0.1,0.1c0.3,0.4,0.7,0.8,1,1.2l0.5,0.5l0.1,0.1c11.3,12,30.7,12.7,42.9,2.2l0.2-0.2
		c0.6-0.5,1.2-1.1,1.8-1.7L698.9,434.4z"/>
</g>
</svg>
