<?xml version="1.0" encoding="utf-8"?>
<!-- Generator: Adobe Illustrator 25.3.0, SVG Export Plug-In . SVG Version: 6.00 Build 0)  -->
<svg version="1.1" id="Layer_1" xmlns="http://www.w3.org/2000/svg" xmlns:xlink="http://www.w3.org/1999/xlink" x="0px" y="0px"
	 viewBox="0 0 1000 1000" style="enable-background:new 0 0 1000 1000;" xml:space="preserve">
<style type="text/css">
	.st0{fill:#1A1A1A;}
</style>
<g id="Logo">
	<path class="st0" d="M601.6,426c0-97.1-79-176-176-176c-233.5,9.7-233.4,342.4,0,352h109.7v-56.1H425.6c-159-6.6-159-233.2,0-239.8
		c66.2,0.1,119.8,53.7,119.9,119.9v235.1c1.8-5.3,4-10.7,6.2-15.5c2.7-6,5.4-11.2,8.6-16.8c5.1-8.7,10.8-17,17.2-24.8
		c0.3-0.3,0.4-0.5,0.6-0.8c0.5-0.6,1-1.2,1.5-1.7c2.9-3.5,5.9-6.8,9.1-10c0.8-0.9,1.7-1.7,2.5-2.5c2.4-2.4,4.8-4.7,7.4-6.9
		c0.6-0.5,1.2-1.1,1.9-1.6c0.4-0.3,0.8-0.7,1.2-1L601.6,426L601.6,426z"/>
	<path class="st0" d="M614.4,569.7c14.2-10.1,29.8-18.1,46.3-23.7h-48.9v25.6C612.7,570.9,613.6,570.2,614.4,569.7z"/>
	<path class="st0" d="M545.5,716.8c-2.1,17.2,10.2,33.2,28,33.2c15.5,0,28.1-12.6,28.1-28.1c0.1-66.2,53.7-119.8,119.9-119.9
		c15.5,0,28.1-12.6,28.1-28.1c0-15.5-12.6-28-28.1-28.1c-3,0-6,0.1-9,0.2c-4.9,0.2-9.8,0.7-14.5,1.3h-0.4
		c-9.6,1.3-19.1,3.4-28.3,6.3l-0.2,0.1c-23.5,7.4-45.2,19.6-63.7,35.9l-0.2,0.2c-6.3,5.6-12.2,11.6-17.7,18l-0.2,0.2
		c-0.5,0.6-1.1,1.3-1.6,1.9l-0.3,0.3c-6.2,7.5-11.7,15.5-16.6,23.9c-0.1,0.1-0.1,0.2-0.3,0.4c-4.5,8-8.4,16.3-11.7,24.8
		c-4.4,11.6-7.6,23.7-9.4,36c-0.4,2.8-0.8,5.4-1.1,8.6v0.3C545.9,708.3,545.7,712.8,545.5,716.8z"/>
</g>
</svg>
