<?xml version="1.0" encoding="utf-8"?>
<!-- Generator: Adobe Illustrator 25.3.0, SVG Export Plug-In . SVG Version: 6.00 Build 0)  -->
<svg version="1.1" id="Layer_1" xmlns="http://www.w3.org/2000/svg" xmlns:xlink="http://www.w3.org/1999/xlink" x="0px" y="0px"
	 viewBox="0 0 1000 1000" style="enable-background:new 0 0 1000 1000;" xml:space="preserve">
<style type="text/css">
	.st0{fill:#F7B917;}
</style>
<g id="Logo">
	<path shape-rendering="geometricPrecision" class="st0" d="M650.2,675.7c-0.1-2.4-0.2-4.8-0.3-7.1c0-0.2,0-0.5,0-0.7c-1.4-23.6-5.6-47-12.4-69.7
		c-0.4-1.3-0.8-2.6-1.2-3.9l-0.4-1.3c-0.3-0.8-0.5-1.7-0.8-2.5c-0.2-0.6-0.4-1.1-0.6-1.7c-0.2-0.7-0.5-1.4-0.7-2.1s-0.5-1.5-0.8-2.3
		c-0.5-1.3-0.9-2.5-1.4-3.8c-1.8-5-3.8-9.9-5.9-14.7c-11.5-26.6-26.8-51.4-45.3-73.6l-2.5-3c-0.8-1-1.7-2-2.6-3
		c-2.6-2.9-5.2-5.8-7.9-8.7c-0.6-0.6-1.2-1.3-1.8-1.9s-1-1.1-1.6-1.6l-0.7-0.7c-0.9-0.9-1.8-1.9-2.8-2.8c0,0-0.1-0.1-0.1-0.1
		c-1-1-2.1-2.1-3.2-3.1s-2.2-2.1-3.3-3.1c-2.2-2.1-4.5-4.1-6.8-6.1c-13.8-12.1-28.7-22.9-44.4-32.3V250h-20
		c0,73.4-59.5,132.9-132.9,132.9c0,0,0,0,0,0c2.2,0,4.3,0,6.5,0.1c-2.1-0.1-4.3-0.1-6.5-0.1v20c21-0.2,41.8,4.7,60.4,14.5
		c0.8,0.4,1.6,0.9,2.5,1.3s1.7,0.9,2.5,1.4c1.2,0.7,2.4,1.4,3.5,2l1.7,1.1c1.7,1.1,3.4,2.2,5,3.3l2.2,1.5l0.4,0.3
		c0.6,0.5,1.2,0.9,1.8,1.4c1.5,1.1,3,2.3,4.5,3.5c0.4,0.3,0.8,0.7,1.2,1s0.8,0.7,1.2,1s0.8,0.7,1.2,1c1.7,1.5,3.3,3,4.9,4.5
		c0.3,0.3,0.6,0.6,0.9,0.9l1.1,1.1c1.1,1.1,2.2,2.3,3.3,3.5c1.4,1.6,2.8,3.2,4.2,4.8l1,1.2c0.2,0.3,0.5,0.6,0.7,0.9s0.4,0.5,0.5,0.7
		c0.5,0.6,1,1.2,1.4,1.9c0.8,1,1.6,2.1,2.3,3.2c0.2,0.3,0.5,0.7,0.7,1c1.5,2.2,3,4.5,4.4,6.8c0.3,0.4,0.5,0.9,0.8,1.3l0.8,1.4
		l0.7,1.3c1.7,2.9,3.2,5.9,4.6,9c0.2,0.4,0.4,0.8,0.5,1.2c0.4,0.8,0.8,1.7,1.1,2.5s0.7,1.6,1,2.5s0.8,1.9,1.1,2.8
		c0.2,0.4,0.3,0.8,0.5,1.2c5.3,14.6,8.1,30.1,8.1,45.7c0,4-0.2,8-0.5,11.9c0,0.3,0,0.7-0.1,1c0,0.3,0,0.6-0.1,1
		c-0.2,1.7-0.4,3.3-0.6,5c-0.1,0.6-0.2,1.2-0.3,1.8l-0.1,0.5c-1.7,10.6-4.7,21-8.9,30.9c-0.1,0.2-0.1,0.3-0.2,0.5
		c-0.3,0.7-0.6,1.4-0.9,2.1c0,0.1-0.1,0.1-0.1,0.2c-0.2,0.5-0.4,0.9-0.6,1.3l-0.7,1.4c-0.1,0.1-0.1,0.3-0.2,0.4
		c-0.2,0.3-0.3,0.7-0.5,1l-0.8,1.7c-0.4,0.8-0.8,1.6-1.3,2.4c-0.1,0.1-0.2,0.3-0.2,0.4c-0.2,0.4-0.4,0.8-0.7,1.2
		c-0.4,0.7-0.8,1.5-1.2,2.2s-0.9,1.6-1.4,2.3s-0.9,1.5-1.4,2.2l-0.1,0.2c-0.5,0.7-1,1.5-1.5,2.2c-0.1,0.1-0.2,0.3-0.3,0.4
		c-0.4,0.6-0.8,1.2-1.3,1.8c-0.5,0.7-1,1.4-1.5,2.1l-0.1,0.1c-0.5,0.7-1.1,1.5-1.6,2.2c-0.1,0.1-0.1,0.2-0.2,0.2
		c-0.5,0.6-1,1.3-1.5,1.9s-1.1,1.4-1.7,2.1s-1.1,1.3-1.7,2s-1.2,1.4-1.9,2.1s-1.2,1.3-1.8,2c-1.9,2-3.8,3.9-5.8,5.8
		c-1.3,1.3-2.7,2.5-4,3.7c0,0-0.1,0.1-0.1,0.1c-0.6,0.5-1.2,1-1.8,1.5s-1.2,1-1.9,1.5h-0.1c-0.6,0.5-1.2,1-1.9,1.5l-0.5,0.4
		c-1.2,0.9-2.4,1.8-3.6,2.7c-0.7,0.5-1.4,1-2.1,1.5c-1.3,0.9-2.7,1.8-4.1,2.7l-0.1,0.1c-1.1,0.7-2.1,1.3-3.2,2
		c-0.5,0.3-1.1,0.6-1.6,1c-1.1,0.6-2.2,1.2-3.3,1.8c-3.4,1.8-6.9,3.5-10.5,5.1c-1.2,0.5-2.4,1-3.6,1.5l0,0c-1,0.4-1.9,0.8-2.9,1.1
		l0,0c-0.9,0.3-1.8,0.7-2.7,1l-1.9,0.6l-0.2,0.1l-1.3,0.4h-0.1c-10,3.1-20.4,5-30.9,5.7h-0.5c-0.8,0-1.5,0.1-2.3,0.1h-0.1
		c-1.9,0.1-3.7,0.1-5.6,0.1v20c1,0,2.1,0,3.1,0.2c3,0.2,5.9,0.7,8.8,1.3c0.5,0.1,1,0.2,1.4,0.3c1.4,0.3,2.8,0.8,4.2,1.2
		c0.5,0.1,0.9,0.3,1.4,0.5c0.9,0.3,1.8,0.7,2.7,1c0.5,0.2,0.9,0.4,1.3,0.6c1.6,0.7,3.1,1.4,4.6,2.3l1,0.5l1.2,0.7h0.1
		c0.4,0.2,0.8,0.5,1.2,0.8c0.4,0.2,0.8,0.5,1.2,0.8s0.8,0.5,1.2,0.8s0.8,0.5,1.2,0.8s0.8,0.6,1.2,0.9c3.1,2.4,5.9,5,8.5,7.9
		c1,1.1,1.9,2.2,2.8,3.4c0.3,0.4,0.6,0.8,0.9,1.2c0.6,0.8,1.1,1.6,1.7,2.4c0.3,0.4,0.5,0.8,0.8,1.2s0.5,0.8,0.8,1.2s0.5,0.8,0.7,1.3
		s0.5,0.8,0.7,1.2s0.5,0.9,0.7,1.4s0.4,0.7,0.5,1c0.7,1.5,1.4,3,2,4.5c0.2,0.5,0.4,0.9,0.5,1.4c0.7,1.8,1.2,3.7,1.7,5.6
		c1.2,4.9,1.9,9.9,1.9,15v0.4h20c0-0.6,0-1.2,0-1.7c0,0,0,0,0-0.1c0-0.5,0-0.9,0.1-1.4c0-0.5,0-0.9,0.1-1.4
		c0.5-8.2,2.7-16.1,6.5-23.4c0.3-0.5,0.5-1,0.8-1.5c0.2-0.3,0.3-0.6,0.5-0.9c0.4-0.7,0.9-1.5,1.3-2.2c5.9-9.4,14.2-17.1,24.1-22.2
		c0.3-0.2,0.6-0.3,0.9-0.5c1.4-0.7,2.9-1.3,4.3-1.9c6.3-2.5,13-4,19.7-4.3c0.6,0,1.2,0,1.9-0.1c-0.3,0-0.7,0-1,0h4.2l2.4-0.1
		c1.4-0.1,2.7-0.2,4.1-0.3c1-0.1,2-0.2,2.9-0.4l1-0.2c0.4-0.1,0.9-0.1,1.3-0.2c0.3,0,0.5-0.1,0.8-0.2l1.7-0.3h0.2
		c0.7-0.2,1.5-0.3,2.2-0.5l0.4-0.1l2.1-0.5c0.8-0.2,1.5-0.4,2.2-0.6l0.2-0.1c0.7-0.2,1.4-0.4,2.1-0.7s1.2-0.4,1.9-0.7
		c0.3-0.1,0.7-0.2,1-0.4c0.5-0.2,1-0.4,1.5-0.6l0.3-0.1l1.9-0.8c0.7-0.3,1.3-0.6,2-0.9c0.3-0.2,0.7-0.3,1-0.5s0.5-0.2,0.8-0.4
		c0.4-0.2,0.8-0.4,1.2-0.6c0.6-0.3,1.1-0.6,1.7-0.9l0,0c0.9-0.5,1.9-1.1,2.8-1.6l1.4-0.8c0.9-0.6,1.8-1.2,2.7-1.8l1.3-0.9
		c0.4-0.3,0.9-0.6,1.3-1s1-0.7,1.5-1.1s1-0.8,1.5-1.2c0.1-0.1,0.3-0.2,0.4-0.3c0.5-0.4,0.9-0.8,1.4-1.2c0.7-0.6,1.3-1.2,2-1.8l1-0.9
		c1.1-1,2.1-2.1,3.1-3.1c0.7,0.5,1.5,1,2.2,1.5c3.6,2.3,7.2,4.5,11,6.5c1.1,0.6,2.2,1.1,3.3,1.7c0.6,0.3,1.2,0.6,1.8,0.9
		s1.3,0.6,2,1c1.2,0.5,2.3,1.1,3.5,1.6c1.9,0.9,3.9,1.7,5.9,2.5l0.2,0.1l2,0.8c0,0,0.1,0,0.1,0l2.1,0.8l2.2,0.8
		c3.6,1.2,7.3,2.3,11.1,3.3c1.5,0.4,3,0.7,4.5,1.1l1.8,0.4c1.7,0.3,3.3,0.7,5,1c4.3,0.7,8.6,1.3,13,1.7c1.8,0.2,3.6,0.3,5.5,0.4
		c0.9,0.1,1.8,0.1,2.8,0.1h9.7c3.5-0.1,6.9-0.3,10.3-0.7C650.3,683.8,650.3,679.7,650.2,675.7z M411.7,389.7
		c29.8-13.3,54.6-35.7,70.8-64.1v89C460.1,403.4,436.3,395,411.7,389.7z M436.2,689.7c-0.4,0.4-0.9,0.8-1.3,1.2
		c-0.4,0.4-0.9,0.8-1.3,1.2l-1.2,1.2c-0.5,0.5-1,1-1.4,1.5s-0.7,0.8-1.1,1.2s-0.6,0.7-0.9,1l-0.5,0.6c-0.7,0.8-1.4,1.7-2.1,2.6
		c-0.4,0.5-0.7,0.9-1.1,1.4l0,0c-0.4,0.5-0.7,1-1,1.4l-0.7,1c-1.5,2.1-2.8,4.3-4.1,6.6c-0.4-0.7-0.8-1.4-1.2-2l-0.1-0.2
		c-0.3-0.5-0.6-1.1-1-1.6c-1-1.6-2.1-3.2-3.2-4.8c-0.3-0.4-0.5-0.8-0.8-1.1c-1-1.3-2-2.6-3-3.8c-0.3-0.4-0.6-0.8-1-1.1
		c-1-1.1-2-2.2-3.1-3.3c-0.3-0.3-0.6-0.6-1-1s-0.6-0.6-0.9-0.8c-0.5-0.5-0.9-0.9-1.4-1.3s-0.9-0.8-1.4-1.2c-0.1-0.1-0.1-0.1-0.2-0.2
		l0.2,0.2h36C437.1,688.9,436.6,689.3,436.2,689.7L436.2,689.7z M502.5,667.5c-3.2,0.6-6.4,1-9.7,1.1h-67.5c1.2-0.7,2.5-1.5,3.7-2.2
		l0.7-0.5l2.9-1.9l0.2-0.2c12.8-8.4,24.3-18.6,34.2-30.4l1.3-1.6l0.2-0.3c0.4-0.5,0.8-1,1.2-1.5s0.9-1.2,1.3-1.7l0.9-1.2
		c0.4-0.5,0.7-0.9,1-1.4l0.7-0.9c0.5-0.8,1.1-1.5,1.6-2.3c2.5-3.6,4.9-7.4,7.1-11.2c3.9-6.8,7.2-13.8,10-21.1
		c0.4,0.9,0.7,1.8,1.1,2.7s0.6,1.6,1,2.4c0.1,0.2,0.2,0.5,0.3,0.7c0.3,0.8,0.7,1.6,1,2.3c0.4,0.8,0.8,1.7,1.2,2.5
		c0.5,1.1,1,2.2,1.6,3.3c0.3,0.6,0.6,1.2,0.9,1.8c0.1,0.2,0.2,0.4,0.3,0.6c0.3,0.7,0.7,1.3,1.1,2c0.5,1,1.1,1.9,1.6,2.9
		c0.1,0.2,0.2,0.4,0.4,0.7c0.3,0.6,0.7,1.1,1,1.7c1.3,2.2,2.7,4.3,4.1,6.5l1,1.4c0.8,1.1,1.5,2.2,2.3,3.3c0.6,0.8,1.1,1.6,1.7,2.3
		s1.2,1.5,1.7,2.3c1.2,1.6,2.5,3.2,3.8,4.7l1.2,1.4c1.1,1.3,2.2,2.5,3.4,3.8c0.7,0.7,1.3,1.4,2,2.2s1.5,1.6,2.3,2.4s1.4,1.4,2.2,2.1
		l0.4,0.4c0.6,0.6,1.2,1.2,1.8,1.7l0.2,0.2c0.8,0.7,1.5,1.4,2.3,2.1C525.8,659.3,514.6,665.2,502.5,667.5L502.5,667.5z M562.2,646.6
		c-1.2-0.8-2.4-1.7-3.6-2.5c-1.2-0.8-2.4-1.7-3.5-2.6c-0.6-0.4-1.2-0.9-1.7-1.3c-1.2-1-2.5-2-3.7-3c-12.2-10.2-22.4-22.6-30.2-36.5
		c-0.4-0.7-0.7-1.3-1.1-2c0-0.1-0.1-0.1-0.1-0.2c-0.3-0.5-0.6-1.1-0.9-1.6c-7.8-15-12.7-31.3-14.3-48.1c0-0.1,0-0.1,0-0.2
		c-0.8-7.3-1.1-14.7-0.9-22.1c-0.1-2-0.3-4-0.5-5.9c-0.5-4.9-1.2-9.7-2.1-14.5c-0.2-1-0.4-1.9-0.6-2.8s-0.4-1.9-0.6-2.8
		c-0.4-1.9-0.9-3.7-1.4-5.6c-0.2-0.9-0.5-1.8-0.8-2.7c-0.6-2-1.2-3.9-1.9-5.8c-0.2-0.6-0.4-1.3-0.7-1.9c-0.1-0.3-0.2-0.6-0.4-1
		c-0.2-0.6-0.4-1.2-0.6-1.8s-0.4-1.1-0.6-1.6c-0.4-1.1-0.9-2.3-1.4-3.4c-0.2-0.6-0.5-1.1-0.7-1.7c-0.5-1.1-1-2.2-1.5-3.3
		c-0.2-0.5-0.5-1.1-0.8-1.6c-0.5-1-1-2-1.4-3l-0.4-0.9c-0.5-0.9-0.9-1.8-1.4-2.7s-1-1.8-1.5-2.8l-0.4-0.7c-0.5-1-1.1-1.9-1.7-2.9
		s-1-1.7-1.6-2.6c-0.3-0.5-0.6-1-0.9-1.5s-0.6-0.9-0.9-1.3l-0.9-1.3c-0.5-0.7-1-1.4-1.5-2.1c-0.1-0.2-0.2-0.3-0.3-0.5
		c-0.6-0.9-1.2-1.7-1.8-2.5c-0.6-0.9-1.3-1.7-1.9-2.6c-0.5-0.6-0.9-1.2-1.4-1.8c-0.2-0.3-0.5-0.6-0.8-0.9c-0.5-0.6-0.9-1.1-1.4-1.7
		c-0.1-0.2-0.3-0.4-0.4-0.5c-0.5-0.6-0.9-1.1-1.4-1.7c-0.2-0.3-0.5-0.6-0.7-0.9c-1-1.1-2-2.2-3-3.3c-0.2-0.2-0.3-0.4-0.5-0.5
		c-0.4-0.4-0.8-0.8-1.2-1.2s-0.8-0.8-1.2-1.2l-1.1-1.1c-0.6-0.6-1.1-1.1-1.7-1.7c-0.2-0.2-0.4-0.4-0.6-0.5c-0.8-0.8-1.6-1.6-2.5-2.4
		c30.3,12.1,58.2,29.5,82.4,51.4c0.6,0.5,1.2,1,1.7,1.6c3.4,3.1,6.7,6.3,10,9.5c28.5,28.4,50.6,62.6,64.8,100.2
		c0.2,0.5,0.4,1,0.5,1.5c9.8,26,15.6,53.4,17,81.1C605.7,667.5,582.3,659.9,562.2,646.6L562.2,646.6z"/>
</g>
</svg>
