<?xml version="1.0" encoding="utf-8"?>
<!-- Generator: Adobe Illustrator 25.3.0, SVG Export Plug-In . SVG Version: 6.00 Build 0)  -->
<svg version="1.1" id="Layer_1" xmlns="http://www.w3.org/2000/svg" xmlns:xlink="http://www.w3.org/1999/xlink" x="0px" y="0px"
	 viewBox="0 0 1000 1000" style="enable-background:new 0 0 1000 1000;" xml:space="preserve">
<style type="text/css">
	.st0{fill:url(#SVGID_1_);}
	.st1{fill:url(#SVGID_2_);}
	.st2{fill:url(#SVGID_3_);}
</style>
<g id="Logo">
	
		<linearGradient id="SVGID_1_" gradientUnits="userSpaceOnUse" x1="223.4" y1="495.6148" x2="611.29" y2="495.6148" gradientTransform="matrix(1 0 0 -1 0 1002)">
		<stop  offset="0" style="stop-color:#85D0D5"/>
		<stop  offset="0.17" style="stop-color:#75C5CD"/>
		<stop  offset="0.51" style="stop-color:#4AA7B7"/>
		<stop  offset="0.97" style="stop-color:#057893"/>
		<stop  offset="1" style="stop-color:#007591"/>
	</linearGradient>
	<path class="st0" d="M698,690.5c0,5.2-4.2,9.4-9.4,9.5c0,0-0.1,0-0.1,0c-2.5,0-4.9-1-6.6-2.8c-48.2-48.4-126.5-48.6-174.9-0.4
		c-0.1,0.1-0.3,0.3-0.4,0.4c-1.8,1.8-4.1,2.8-6.6,2.8c-109.4,0-198-88.6-198-198c0-2.3,0-4.5,0.1-6.8c3.4,99.8,84.4,180,184.6,182
		c2.5,0,4.9-0.9,6.7-2.7c47-44.3,119-48.6,170.9-10.2c4.2,3.1,10.1,2.2,13.2-2c1.2-1.6,1.8-3.6,1.8-5.6v-168
		c0-77.9-47.8-147.7-120.4-175.9c82.7,25.9,139,102.5,139.1,189.2V690.5z"/>
	
		<linearGradient id="SVGID_2_" gradientUnits="userSpaceOnUse" x1="638.2508" y1="750.73" x2="638.2508" y2="997.23" gradientTransform="matrix(1 0 0 -1 -147.68 1298.14)">
		<stop  offset="0" style="stop-color:#007591"/>
		<stop  offset="3.000000e-02" style="stop-color:#057893"/>
		<stop  offset="0.49" style="stop-color:#4AA7B7"/>
		<stop  offset="0.83" style="stop-color:#75C5CD"/>
		<stop  offset="1" style="stop-color:#85D0D5"/>
	</linearGradient>
	<path class="st1" d="M641.5,450.9c0,82.1-65.7,149.2-147.8,150.8c62.5-1.6,111.9-53.5,110.3-115.9s-53.5-111.9-115.9-110.3
		c-1,0-1.9,0.1-2.9,0.1c-57.9,2.7-104.9,49.7-107.6,107.6c-2.9,62.5,45.4,115.6,107.9,118.5c0.7,0,1.3,0.1,2,0.1
		c-84.2-1.7-151.6-72.7-147.6-158.1c3.6-77.2,66.3-139.9,143.5-143.5c1.1-0.1,2.3-0.1,3.5-0.1s2.6,0,3.8,0
		C573.8,300,641.5,367.7,641.5,450.9z"/>
	
		<linearGradient id="SVGID_3_" gradientUnits="userSpaceOnUse" x1="766.22" y1="513.4349" x2="273.28" y2="513.4349" gradientTransform="matrix(1 0 0 -1 0 1002)">
		<stop  offset="0" style="stop-color:#007591"/>
		<stop  offset="3.000000e-02" style="stop-color:#057893"/>
		<stop  offset="0.49" style="stop-color:#4AA7B7"/>
		<stop  offset="0.83" style="stop-color:#75C5CD"/>
		<stop  offset="1" style="stop-color:#85D0D5"/>
	</linearGradient>
	<path class="st2" d="M679.2,488.6v168c0,5.2-4.2,9.4-9.4,9.5c-2,0-4-0.6-5.6-1.8c-51.9-38.4-123.9-34.1-170.9,10.2
		c-1.8,1.7-4.2,2.7-6.7,2.7c-100.2-2-181.2-82.2-184.6-182c-0.1-2.2-0.1-4.4-0.1-6.6c0-100.6,79-183.5,179.5-188.3h0.2h1l-2.2,0.1
		c-1,0.1-2.1,0.1-3.1,0.2c-2.4,0.2-4.7,0.5-7.1,0.8l-1.8,0.2c-2.3,0.4-4.7,0.8-7,1.2c-0.6,0.1-1.1,0.2-1.7,0.4
		c-3.4,0.7-6.8,1.6-10.2,2.5l-1.7,0.5l-3.3,1c-0.5,0.2-1.1,0.4-1.6,0.5c-2.8,0.9-5.5,1.9-8.1,3c-2.1,0.9-4.2,1.8-6.3,2.7
		c-1,0.5-2.1,1-3.1,1.5l-1.5,0.8c-4.6,2.3-9.1,4.8-13.4,7.6l-1.5,1c-1.4,0.9-2.8,1.9-4.1,2.8l-1.4,1l-1.4,1c-1.4,1-2.7,2-4.1,3.1
		c-0.3,0.3-0.7,0.5-1,0.8c-1.9,1.5-3.7,3.1-5.6,4.6l-1.3,1.1l-1.2,1.1c-1.3,1.1-2.5,2.3-3.7,3.5l-1.2,1.2c-0.8,0.8-1.6,1.6-2.4,2.4
		c-0.5,0.5-0.9,1-1.4,1.5c-0.3,0.3-0.6,0.7-1,1c-0.8,0.8-1.5,1.7-2.3,2.5c-2.6,3-5.1,6.1-7.5,9.3l-1,1.4l-1,1.4
		c-0.3,0.5-0.6,0.9-1,1.4c-0.6,0.9-1.3,1.9-1.9,2.8l-0.9,1.4c-1.2,2-2.4,3.9-3.6,5.9c-0.3,0.5-0.5,1-0.8,1.4
		c-2.8,5-5.4,10.1-7.6,15.4c-0.4,1-0.8,2-1.2,3l-0.1,0.1c-0.4,1-0.8,2-1.1,2.9c-0.2,0.7-0.5,1.3-0.7,2c-0.4,1.1-0.8,2.1-1.1,3.2
		s-0.7,2.2-1.1,3.3c-0.5,1.6-1,3.3-1.4,4.9c-0.6,2.3-1.2,4.6-1.7,6.9c-0.3,1.5-0.6,2.9-0.9,4.4c-0.4,2.1-0.8,4.3-1.1,6.5
		c-0.1,0.8-0.2,1.6-0.3,2.3c-0.5,3.8-0.8,7.6-1,11.5c-3.3,71,42.7,132,106.7,151.5c13.3,4.1,27,6.2,40.9,6.5c1,0,2.1,0,3.1,0
		s2.1,0,3.1,0c79.6-1.6,144.2-64.7,147.7-144.2c0.1-2.2,0.2-4.4,0.2-6.7c0-66.9-43.8-123.8-104.2-143.5l0,0
		c-13.8-4.5-28.2-7-42.7-7.4C597.2,302.2,679.2,386,679.2,488.6z"/>
</g>
</svg>
