<?xml version="1.0" encoding="utf-8"?>
<!-- Generator: Adobe Illustrator 25.3.0, SVG Export Plug-In . SVG Version: 6.00 Build 0)  -->
<svg version="1.1" id="Layer_1" xmlns="http://www.w3.org/2000/svg" xmlns:xlink="http://www.w3.org/1999/xlink" x="0px" y="0px"
	 viewBox="0 0 1000 1000" style="enable-background:new 0 0 1000 1000;" xml:space="preserve">
<style type="text/css">
	.st0{fill:#1A1A1A;}
</style>
<g id="Logo">
	<path class="st0" d="M700.5,693c0,5.3-4.2,9.5-9.5,9.5c0,0-0.1,0-0.1,0c-2.5,0-4.9-1-6.7-2.8c-48.7-48.9-127.7-49.1-176.6-0.4
		c-0.1,0.1-0.3,0.3-0.4,0.4c-0.9,0.9-1.9,1.6-3.1,2.1c-1.2,0.5-2.4,0.7-3.6,0.7c-92.4,0-172.8-63.3-194.5-153.1
		c25.7,78.6,98.3,132.4,181,134.1h0.2c3.5,0,6.8-1.4,9.4-3.8c46-43.4,116.5-47.6,167.4-10c4.1,3,9.5,3.5,14.1,1.2
		c4.6-2.3,7.5-7,7.5-12.2V489c0.1-51.6-20.4-101.2-57-137.6c-6-6-12.4-11.7-19.2-16.9c11.7,7.7,22.7,16.5,32.6,26.4
		c37.6,37.4,58.7,88.4,58.6,141.4L700.5,693z"/>
	<path class="st0" d="M677.4,489v169.7c0,2.1-1.2,4-3.1,4.9c-1.8,0.9-4,0.8-5.6-0.5c-54-40-128.9-35.5-177.8,10.6
		c-1,1-2.4,1.6-3.9,1.6c-99-2-179.1-81.1-182.5-180c-0.1-2.1-0.1-4.3-0.1-6.5c0-62.2,31-120.3,82.7-154.9c-0.6,0.6-1.3,1.1-1.9,1.7
		s-1.2,1.1-1.8,1.7c-0.9,0.8-1.7,1.7-2.6,2.5l-0.4,0.4l-0.3,0.3l-1.2,1.2l-1,1.1c-0.2,0.2-0.4,0.4-0.5,0.6l-0.1,0.1l-0.9,1l-1,1.1
		l-1.2,1.2c0,0,0,0,0,0c-0.4,0.4-0.8,0.9-1.2,1.3l-0.5,0.5c-0.5,0.6-1,1.1-1.5,1.7c-0.3,0.4-0.7,0.8-1,1.2c-1,1.2-2,2.5-3,3.7
		c-1,1.3-2,2.5-2.9,3.9c-0.1,0.1-0.2,0.2-0.2,0.3l-0.8,1.1c-0.3,0.5-0.7,1-1,1.5l-0.2,0.2l-0.2,0.4c-0.4,0.6-0.8,1.1-1.2,1.7
		c-0.1,0.2-0.3,0.4-0.4,0.6l-1,1.5c-0.6,0.9-1.1,1.8-1.7,2.7l-0.3,0.5c-0.5,0.9-1,1.7-1.5,2.6l-0.2,0.3l-0.4,0.8
		c-0.8,1.4-1.5,2.8-2.3,4.2c-0.3,0.5-0.6,1.1-0.9,1.7c-0.4,0.8-0.9,1.7-1.3,2.5c0,0.1-0.1,0.2-0.2,0.4c-0.5,1.1-1.1,2.2-1.6,3.4
		c-0.1,0.3-0.2,0.5-0.4,0.8l-0.8,1.7c-0.3,0.7-0.6,1.4-0.9,2s-0.5,1-0.7,1.6s-0.4,1-0.6,1.6c0,0.1-0.1,0.1-0.1,0.2
		c-0.2,0.5-0.4,1-0.6,1.5s-0.4,1-0.6,1.5c-0.3,0.7-0.5,1.4-0.8,2.1l-0.6,1.7c-0.3,0.8-0.6,1.6-0.8,2.5c-0.1,0.3-0.2,0.6-0.3,0.9
		c-0.2,0.6-0.4,1.2-0.5,1.7c-0.3,0.9-0.5,1.7-0.8,2.6s-0.5,1.6-0.7,2.4c-0.1,0.3-0.2,0.6-0.2,0.9c-0.4,1.5-0.7,2.9-1.1,4.4
		c-1.1,4.8-2,9.7-2.6,14.6l-0.1,0.7c-0.1,1.1-0.3,2.3-0.4,3.5c-0.3,3-0.5,6-0.7,9c-1.6,31.7,6.6,63,23.3,89.9
		c0.2,0.3,0.4,0.6,0.5,0.9c0.3,0.5,0.6,1,1,1.5c11.1,17.2,25.5,32.1,42.4,43.8c0.5,0.4,1.1,0.7,1.6,1.1s1.1,0.7,1.6,1.1
		c0.2,0.1,0.4,0.3,0.7,0.4c0.7,0.5,1.4,0.9,2,1.3c19.5,12.3,41.5,20.1,64.5,22.8c1.6,0.2,3.2,0.4,4.8,0.5s3.4,0.3,5.2,0.4
		c0.9,0,1.7,0.1,2.6,0.1s1.9,0.1,2.8,0.1h0.8c1.6,0,3.3,0,4.9,0h0.8c2.5,0,5.1-0.2,7.6-0.3c1.9-0.1,3.8-0.3,5.6-0.5
		c1.2-0.1,2.5-0.3,3.7-0.4l1.9-0.2c1.8-0.2,3.5-0.5,5.3-0.8l0.5-0.1c2.2-0.4,4.5-0.9,6.7-1.4c0.2,0,0.5-0.1,0.7-0.2
		c1.8-0.4,3.5-0.8,5.3-1.3c1.2-0.3,2.3-0.6,3.5-1c1.7-0.5,3.5-1,5.2-1.6c1.8-0.6,3.5-1.2,5.2-1.8l0,0c0.9-0.3,1.9-0.7,2.8-1.1
		c1.9-0.7,3.7-1.5,5.6-2.3c0.9-0.4,1.8-0.8,2.7-1.2c1.8-0.8,3.6-1.7,5.4-2.6s3.6-1.9,5.3-2.8s3.2-1.8,4.8-2.8c1.1-0.6,2.1-1.3,3.2-2
		l0,0c1.6-1,3.1-2,4.7-3.1c2.3-1.6,4.5-3.2,6.7-4.9c0.8-0.6,1.5-1.2,2.3-1.8c4.4-3.6,8.7-7.4,12.7-11.4c1.7-1.7,3.4-3.5,5.1-5.3
		c0.4-0.5,0.8-0.9,1.2-1.4c0.8-0.9,1.6-1.8,2.4-2.8l1.2-1.4c0.7-0.8,1.3-1.6,2-2.4c18.9-23.6,30.4-52.2,33.3-82.3
		c0.2-2.1,0.3-4.2,0.5-6.3c0-0.6,0.1-1.2,0.1-1.8s0-1.1,0.1-1.7c0-1.7,0.1-3.5,0.1-5.3c0-0.9,0-1.9,0-2.8c0-0.2,0-0.3,0-0.5
		c0-0.9,0-1.8-0.1-2.7c0-0.3,0-0.6,0-0.9c0-0.6,0-1.1-0.1-1.7c0-0.4,0-0.8-0.1-1.1c0-0.7-0.1-1.5-0.2-2.2s-0.1-1.3-0.2-2v-0.1
		c0-0.6-0.1-1.3-0.2-1.9s-0.2-1.4-0.2-2c-0.2-1.9-0.5-3.9-0.8-5.8c-0.2-1.6-0.5-3.2-0.8-4.7c-2.8-15.4-7.9-30.2-15.2-44
		c-0.7-1.3-1.4-2.7-2.2-4c-0.7-1.3-1.5-2.6-2.2-3.8c-2.4-4-5-7.9-7.7-11.6c-0.2-0.2-0.4-0.5-0.5-0.8c-6.3-8.6-13.5-16.4-21.4-23.6
		c9.8,6.7,18.9,14.2,27.3,22.6C658,392,677.6,439.5,677.4,489z"/>
	<path class="st0" d="M639.3,450.9c0,1.7,0,3.3-0.1,5c0,0.5,0,1.1-0.1,1.6c-1.3,29.9-11.6,58.8-29.7,82.7c-0.7,0.9-1.4,1.8-2.1,2.7
		s-1.4,1.8-2.1,2.6l-0.2,0.2l-1,1.2l-1.1,1.3l-0.1,0.1c-0.4,0.4-0.7,0.8-1.1,1.2l-1.2,1.3c-1.6,1.7-3.2,3.4-4.8,5
		c-1.4,1.4-2.8,2.7-4.2,4l-1.4,1.3l-1,0.8c-0.3,0.3-0.7,0.6-1,0.9l-0.9,0.8c-0.5,0.4-1,0.8-1.5,1.2l-1.5,1.3c-0.5,0.4-1,0.8-1.4,1.2
		c-3.5,2.8-7.1,5.4-10.8,7.8c0.8-0.8,1.7-1.6,2.5-2.4c46.3-46.2,46.3-121.2,0.1-167.4s-121.2-46.3-167.4-0.1
		c-45.1,45-46.5,117.7-3.1,164.3c1.8,2,3.7,3.9,5.7,5.7l-1.9-1.2l-1.8-1.2c-15.3-10.8-28.6-24.3-39-39.9l-1-1.5
		c-0.4-0.7-0.8-1.3-1.2-2c-15.6-25-23.4-54.1-22.4-83.6c0-0.7,0-1.3,0.1-2s0.1-1.5,0.1-2.2c0-0.3,0-0.6,0.1-0.9
		c0-0.7,0.1-1.4,0.2-2.1V438c0.1-1.8,0.3-3.6,0.6-5.3c0,0,0-0.1,0-0.1c8.1-64.6,58.9-117.1,122.7-127.9l1.4-0.2l1.2-0.2h0.1l1.1-0.2
		l1.4-0.2l1.2-0.2l1.5-0.2l1.8-0.2l1.8-0.2l1.5-0.1l1.5-0.1l2.2-0.1l0,0h0.8c1.1-0.1,2.3-0.1,3.4-0.1c1.3,0,2.6,0,3.8,0s2.5,0,3.8,0
		l1.9,0.1l1.4,0.1l1.3,0.1l1.1,0.1l0,0c0.7,0,1.4,0.1,2.1,0.1l1.9,0.2c0.4,0,0.8,0.1,1.2,0.1c1.7,0.2,3.4,0.4,5,0.6
		c0.6,0.1,1.3,0.2,1.9,0.3l0.8,0.1l2,0.3c0.9,0.2,1.8,0.3,2.8,0.5s1.6,0.3,2.4,0.5s1.3,0.3,1.9,0.4l1.8,0.4l2.5,0.6
		c1,0.2,1.9,0.5,2.9,0.7l1.8,0.5c1.2,0.3,2.4,0.7,3.6,1.1l0.7,0.2l0.5,0.5h1.1c1.1,0.4,2.3,0.8,3.4,1.2l1.8,0.6l2.7,1
		c0.6,0.2,1.1,0.4,1.7,0.7c49.5,20.2,84.3,65.4,91.3,118.4c0.1,0.6,0.2,1.2,0.2,1.9c0.1,1.1,0.2,2.2,0.3,3.3c0,0.3,0.1,0.6,0.1,1
		s0.1,0.8,0.1,1.2c0,0,0,0.1,0,0.1c0.1,0.7,0.1,1.5,0.2,2.2c0,0.2,0,0.4,0,0.6c0.1,0.9,0.1,1.7,0.1,2.6s0.1,1.9,0.1,2.8
		c0,0.2,0,0.4,0,0.6C639.3,449.1,639.3,450,639.3,450.9z"/>
</g>
</svg>
